<svg width="40" height="40" viewBox="0 0 40 40" fill="none" xmlns="http://www.w3.org/2000/svg">
<path d="M12 9.48498C12 7.94074 10.3392 7.0225 9.20496 8.07041C6.00624 11.0256 4 15.2761 4 19.9999C4 24.7237 6.00624 28.9742 9.20496 31.9294C10.3392 32.9773 12 32.0591 12 30.5148V9.48498Z" fill="#2B87FF"/>
<path fill-rule="evenodd" clip-rule="evenodd" d="M18.6403 35.9429C17.6829 35.8624 17 35.0237 17 34.0628V5.93697C17 4.97614 17.6829 4.13743 18.6403 4.05686C19.0885 4.01914 19.542 3.9999 20 3.9999C28.8366 3.9999 36 11.1633 36 19.9999C36 28.8365 28.8366 35.9999 20 35.9999C19.542 35.9999 19.0886 35.9807 18.6403 35.9429ZM29.5 23C30.8807 23 32 21.8807 32 20.5C32 19.1193 30.8807 18 29.5 18C28.1193 18 27 19.1193 27 20.5C27 21.8807 28.1193 23 29.5 23Z" fill="url(#paint0_linear_119_32)"/>
<defs>
<linearGradient id="paint0_linear_119_32" x1="26.5" y1="3.9999" x2="26.5" y2="35.9999" gradientUnits="userSpaceOnUse">
<stop stop-color="#2684FF"/>
<stop offset="1" stop-color="#B3D4FF"/>
</linearGradient>
</defs>
</svg>
