<svg width="28" height="10" viewBox="0 0 28 10" fill="none" xmlns="http://www.w3.org/2000/svg">
<path d="M24.3556 9.192C23.7076 9.192 23.1276 9.06 22.6156 8.796C22.1116 8.524 21.7116 8.152 21.4156 7.68C21.1276 7.208 20.9836 6.676 20.9836 6.084C20.9836 5.492 21.1276 4.964 21.4156 4.5C21.7036 4.036 22.0996 3.672 22.6036 3.408C23.1156 3.136 23.6956 3 24.3436 3C24.9916 3 25.5676 3.136 26.0716 3.408C26.5756 3.672 26.9716 4.036 27.2596 4.5C27.5556 4.964 27.7036 5.492 27.7036 6.084C27.7036 6.676 27.5596 7.208 27.2716 7.68C26.9836 8.152 26.5876 8.524 26.0836 8.796C25.5796 9.06 25.0036 9.192 24.3556 9.192ZM24.3436 7.128C24.5436 7.128 24.7156 7.088 24.8596 7.008C25.0116 6.92 25.1276 6.8 25.2076 6.648C25.2876 6.488 25.3276 6.304 25.3276 6.096C25.3276 5.888 25.2836 5.708 25.1956 5.556C25.1156 5.396 25.0036 5.276 24.8596 5.196C24.7156 5.108 24.5436 5.064 24.3436 5.064C24.1516 5.064 23.9796 5.108 23.8276 5.196C23.6836 5.284 23.5676 5.408 23.4796 5.568C23.3996 5.72 23.3596 5.9 23.3596 6.108C23.3596 6.308 23.3996 6.488 23.4796 6.648C23.5676 6.8 23.6836 6.92 23.8276 7.008C23.9796 7.088 24.1516 7.128 24.3436 7.128Z" fill="var(--color-background-brand-bold-default);"/>
<path d="M19.0452 9.04801C18.6692 9.04801 18.3572 8.92001 18.1092 8.66401C17.8612 8.40801 17.7372 8.09601 17.7372 7.72801C17.7372 7.35201 17.8612 7.03601 18.1092 6.78001C18.3572 6.52401 18.6692 6.39601 19.0452 6.39601C19.4212 6.39601 19.7292 6.52401 19.9692 6.78001C20.2172 7.03601 20.3412 7.35201 20.3412 7.72801C20.3412 8.09601 20.2172 8.40801 19.9692 8.66401C19.7292 8.92001 19.4212 9.04801 19.0452 9.04801Z" fill="none"/>
<path d="M14.2802 8.904V3H16.6322V8.904H14.2802ZM15.4562 2.448C15.1122 2.448 14.8242 2.332 14.5922 2.1C14.3682 1.86 14.2562 1.568 14.2562 1.224C14.2562 0.88 14.3682 0.592 14.5922 0.36C14.8242 0.12 15.1122 0 15.4562 0C15.8082 0 16.0962 0.12 16.3202 0.36C16.5442 0.592 16.6562 0.88 16.6562 1.224C16.6562 1.568 16.5442 1.86 16.3202 2.1C16.0962 2.332 15.8082 2.448 15.4562 2.448Z" fill="none"/>
<path d="M10.935 8.90401V5.592C10.935 5.36 10.867 5.18401 10.731 5.064C10.603 4.936 10.439 4.872 10.239 4.872C10.103 4.872 9.97896 4.90001 9.86696 4.95601C9.76296 5.01201 9.67896 5.096 9.61495 5.208C9.55896 5.31201 9.53096 5.44 9.53096 5.592L8.61895 5.184C8.61895 4.704 8.72295 4.292 8.93095 3.948C9.14696 3.604 9.43896 3.34 9.80696 3.156C10.183 2.972 10.607 2.88 11.079 2.88C11.503 2.88 11.879 2.976 12.207 3.168C12.543 3.35201 12.807 3.608 12.999 3.936C13.191 4.256 13.287 4.628 13.287 5.052V8.90401H10.935ZM7.17896 8.90401V3H9.53096V8.90401H7.17896Z" fill="none"/>
<path d="M3.26039 9.048C2.68439 9.048 2.17239 8.936 1.72439 8.712C1.28439 8.488 0.936387 8.176 0.680387 7.776C0.424387 7.376 0.296387 6.92 0.296387 6.408V3H2.64839V6.432C2.64839 6.552 2.67239 6.66 2.72039 6.756C2.77639 6.852 2.84839 6.928 2.93639 6.984C3.03239 7.032 3.14039 7.056 3.26039 7.056C3.42839 7.056 3.56839 7 3.68039 6.888C3.80039 6.768 3.86039 6.616 3.86039 6.432V3H6.21239V6.408C6.21239 6.928 6.08439 7.388 5.82839 7.788C5.58039 8.18 5.23239 8.488 4.78439 8.712C4.34439 8.936 3.83639 9.048 3.26039 9.048Z" fill="none"/>
</svg>
